<svg width="44" height="37" viewBox="0 0 44 37" fill="none" xmlns="http://www.w3.org/2000/svg">
<g clip-path="url(#clip0_2003_10)">
<rect width="44" height="37" fill="black"/>
<path d="M32.6258 1C26.7573 1 22 5.75731 22 11.6258C21.9977 13.2533 22.3707 14.8594 23.0902 16.3193L23.1949 16.5381L32.6239 34.7744L41.9731 16.6923L42.0256 16.585C42.8332 15.0567 43.2541 13.3539 43.2516 11.6254C43.2516 5.75731 38.4943 1 32.6258 1ZM35.2846 14.7679V15.9958H29.9629V14.7679H32.0498V12.6934L27.8974 7.63554H37.3542L33.1973 12.6991V14.7676L35.2846 14.7679Z" fill="white"/>
<path d="M7.34102 28.4299C9.13281 28.4299 10.831 27.9084 12.4356 26.8655C14.0402 25.8225 14.8425 24.5923 14.8425 23.1749C14.8425 22.1587 14.4413 21.3162 13.639 20.6477C12.2484 19.5244 10.3095 18.9628 7.8224 18.9628C7.2073 18.9628 6.88103 18.9762 6.84359 19.003C6.8008 19.0297 6.77941 20.2733 6.77941 22.7336C6.77941 25.194 6.89975 27.0794 7.14044 28.3898C7.19393 28.4166 7.26079 28.4299 7.34102 28.4299ZM10.47 14.0849C11.1653 13.8067 11.7617 13.3788 12.2591 12.8012C12.7512 12.2289 12.9972 11.6272 12.9972 10.996C12.9972 10.3702 12.81 9.87014 12.4356 9.49573C12.0612 9.12133 11.5932 8.84052 11.0316 8.65332C10.47 8.46612 9.92976 8.3324 9.41094 8.25217C8.88678 8.17194 8.384 8.13183 7.90263 8.13183C7.42125 8.13183 7.16184 8.15055 7.1244 8.18799C7.08161 8.23078 7.02812 9.32725 6.96394 11.4774C6.89441 13.6329 6.85964 14.7775 6.85964 14.9112C6.88638 14.938 7.02812 14.9514 7.28486 14.9514C7.53624 14.9514 7.95611 14.8765 8.54446 14.7267C9.13281 14.5823 9.77465 14.3683 10.47 14.0849ZM1.76505 25.5417L1.96563 10.2178C1.96563 9.14807 1.93888 8.58646 1.8854 8.53298C1.59122 8.2388 1.20345 7.58894 0.722067 6.5834C0.240689 5.5832 0 4.93601 0 4.64184L0.0401148 4.52149C0.200574 4.38777 1.05101 4.26743 2.59142 4.16046C4.12648 4.05348 5.65084 4 7.16451 4C8.67283 4 10.0555 4.0936 11.3124 4.2808C12.5693 4.46801 13.7942 4.76218 14.9869 5.16333C16.1743 5.56448 17.129 6.15818 17.8511 6.94443C18.5732 7.73603 18.9342 8.61856 18.9342 9.59201C18.9342 10.5708 18.7283 11.4533 18.3164 12.2396C17.8992 13.0312 17.3831 13.6944 16.768 14.2293C15.832 15.0316 14.9227 15.6467 14.0402 16.0746C13.9867 16.1281 13.96 16.1682 13.96 16.1949C13.9867 16.2217 14.1819 16.2885 14.5456 16.3955C14.904 16.5025 15.2517 16.6282 15.5886 16.7726C15.9202 16.9223 16.3267 17.1176 16.8081 17.3582C17.2895 17.5989 17.7308 17.8851 18.1319 18.2167C18.5331 18.5537 18.9075 18.9361 19.2551 19.364C20.0307 20.2733 20.4185 21.5088 20.4185 23.0706C20.4185 24.6377 19.9371 26.1033 18.9743 27.4672C18.0116 28.8311 16.7279 29.9008 15.1233 30.6764C11.9141 32.2275 8.26366 33.003 4.17194 33.003L2.12609 32.8827C2.04586 32.7757 1.96563 31.8049 1.8854 29.9703C1.80517 28.1411 1.76505 26.6649 1.76505 25.5417Z" fill="white"/>
</g>
<defs>
<clipPath id="clip0_2003_10">
<rect width="44" height="37" fill="white"/>
</clipPath>
</defs>
</svg>
