<svg width="274" height="192" viewBox="0 0 274 192" fill="none" xmlns="http://www.w3.org/2000/svg">
<path d="M67.3376 114.035C67.3376 118.228 65.9107 121.638 63.0571 124.264C60.2954 126.752 56.8894 127.996 52.839 127.996H37.4659V137.349H28.3525V118.32H53.7596C55.0023 118.32 56.0609 117.906 56.9354 117.122C57.81 116.339 58.2242 115.279 58.2242 113.989C58.2242 112.699 57.81 111.639 56.9354 110.902C56.0609 110.165 55.0023 109.75 53.7596 109.75H28.3525L34.3821 100.075H52.885C56.9354 100.075 60.2954 101.319 63.0571 103.807C65.9107 106.433 67.3376 109.843 67.3376 114.035Z" fill="white"/>
<path d="M114.423 118.366C114.423 123.803 112.72 128.319 109.36 131.912C106 135.506 101.766 137.303 96.6567 137.303H87.7735C82.6184 137.303 78.3839 135.506 75.0239 131.912C71.6639 128.319 69.9609 123.803 69.9609 118.366C69.9609 112.93 71.6179 108.506 74.9779 105.143C78.2919 101.779 82.5724 100.075 87.7735 100.075H96.6567C101.858 100.075 106.138 101.779 109.452 105.143C112.766 108.506 114.423 112.93 114.423 118.366ZM96.6567 109.75H87.7735C85.242 109.75 83.1708 110.626 81.5138 112.331C79.9028 114.035 79.0743 116.201 79.0743 118.873C79.0743 121.546 79.9028 123.665 81.5138 125.324C83.1247 126.982 85.242 127.766 87.7735 127.766H96.6567C99.1882 127.766 101.259 126.936 102.916 125.324C104.527 123.711 105.356 121.546 105.356 118.873C105.356 116.201 104.527 114.035 102.87 112.331C101.259 110.58 99.1882 109.75 96.6567 109.75Z" fill="white"/>
<path d="M148.944 127.72L143.006 137.349H117.001V100.075H126.114V127.72H148.944Z" fill="white"/>
<path d="M164.455 137.349L169.979 127.673H182.268L174.627 114.312L161.372 137.349H150.049L168.92 104.221C169.518 103.116 170.347 102.148 171.405 101.319C172.556 100.443 173.707 99.9824 174.811 99.9824C175.916 99.9824 177.067 100.443 178.217 101.319C179.23 102.102 180.059 103.069 180.657 104.221L199.068 137.349H164.455Z" fill="white"/>
<path d="M245.509 137.349H232.253L223.369 127.996H210.804V137.349H201.599V118.32H227.006C228.571 118.32 229.859 118.044 230.826 117.445C232.115 116.708 232.759 115.556 232.759 114.081C232.759 111.179 230.826 109.75 227.006 109.75H201.599L207.582 100.075H226.177C230.78 100.075 234.508 101.181 237.362 103.392C240.584 105.926 242.195 109.474 242.195 114.128C242.195 116.754 241.55 119.104 240.261 121.223C238.973 123.343 237.178 124.955 234.876 126.107L245.509 137.349Z" fill="white"/>
<path d="M106.783 72.2452C107.197 72.2452 107.52 72.2913 107.842 72.3834C106.599 69.066 105.909 65.5182 105.863 61.9244C105.863 61.7401 105.863 61.5097 105.863 61.3254C105.863 54.0917 108.21 47.3187 112.721 41.6515C118.612 34.2334 127.449 29.8563 136.931 29.7181C137.621 29.7181 138.266 29.7181 138.864 29.7642H138.91C145.814 30.0867 152.35 32.6208 157.551 36.9518C157.689 35.846 158.288 34.7863 159.346 34.2334C153.593 29.5799 146.505 26.8615 139.002 26.4929H138.956C138.496 26.4929 137.944 26.4468 137.437 26.4468C137.253 26.4468 137.069 26.4468 136.839 26.4468C126.391 26.6311 116.679 31.4229 110.189 39.6242C105.31 45.7521 102.641 53.4466 102.641 61.2794C102.641 61.5097 102.641 61.7401 102.641 61.9705C102.733 65.7025 103.377 69.4346 104.62 72.8902C105.172 72.5216 105.863 72.2452 106.783 72.2452Z" fill="white"/>
<path d="M166.895 42.8496C166.388 43.7711 165.468 44.4622 164.179 44.5544C167.355 49.5765 169.012 55.3359 169.012 61.3717C169.012 61.556 169.012 61.7403 169.012 61.9246V62.0167C168.874 69.1583 166.296 76.1157 161.739 81.5986C156.078 88.4176 147.747 92.5644 138.91 92.979H138.864C137.943 93.0251 136.793 93.0251 135.734 92.979H135.688C127.173 92.5183 119.348 88.6941 113.687 82.2436C113.641 82.1975 113.641 82.1975 113.595 82.1515C113.043 82.6122 112.306 82.9347 111.34 82.9347C111.017 82.9347 110.695 82.8886 110.419 82.8426C110.281 82.8886 110.143 82.9347 110.005 82.9347C110.373 83.4415 110.787 83.9023 111.202 84.363C117.461 91.5046 126.068 95.6975 135.504 96.2043H135.55C136.148 96.2504 136.793 96.2504 137.391 96.2504C137.943 96.2504 138.45 96.2504 138.91 96.2043H138.956C148.714 95.7896 157.919 91.1821 164.179 83.6719C169.196 77.6361 172.05 69.9416 172.188 62.1089V62.0167C172.188 61.8324 172.188 61.6021 172.188 61.4178C172.234 54.783 170.347 48.3325 166.895 42.8496Z" fill="white"/>
<path d="M135.642 94.4993C136.194 94.2229 136.746 93.9464 137.299 93.67C137.345 93.67 137.391 93.6239 137.437 93.5778C144.479 89.7075 150.14 83.6257 153.5 76.2998C155.479 71.9227 156.63 67.0848 156.768 61.9705C156.768 61.648 156.768 61.3254 156.768 61.0029C156.768 56.165 155.848 51.5576 154.191 47.3187C151.061 39.3938 145.261 32.8051 137.897 28.6584C137.759 28.5662 137.575 28.4741 137.437 28.428C137.253 28.3358 137.068 28.1976 136.838 28.1055" stroke="white" stroke-width="4.50235" stroke-miterlimit="10"/>
<path d="M138.91 28.1514C138.542 28.3357 138.219 28.52 137.897 28.7043C137.759 28.7964 137.575 28.8425 137.437 28.9346C130.073 33.0353 124.227 39.624 121.097 47.5489C119.394 51.8338 118.428 56.4874 118.428 61.3713C118.428 61.6017 118.428 61.786 118.428 62.0164C118.52 67.2689 119.717 72.245 121.742 76.7603C125.01 83.9019 130.487 89.8456 137.299 93.7159C137.345 93.7619 137.391 93.7619 137.437 93.808C137.943 94.0845 138.404 94.3609 138.91 94.5913" stroke="white" stroke-width="4.50235" stroke-miterlimit="10"/>
<path d="M158.011 43.1259C156.539 44.1856 155.02 45.1071 153.409 45.9365C148.438 48.4706 143.053 49.7607 137.391 49.7607C131.914 49.7607 126.621 48.5166 121.742 46.1208C118.336 44.4621 115.252 42.2505 112.537 39.5781L110.281 41.8819C113.227 44.7846 116.633 47.2265 120.315 49.0235C125.654 51.6497 131.408 52.9859 137.391 52.9859C143.513 52.9859 149.404 51.6037 154.836 48.8392C156.999 47.7334 159.07 46.4433 161.003 44.9228C159.53 44.8767 158.564 44.1395 158.011 43.1259Z" fill="white"/>
<path d="M155.065 75.2862L154.145 74.8254C149.082 72.5217 143.696 71.3237 138.081 71.3237C137.851 71.3237 137.621 71.3237 137.391 71.3237C131.637 71.4159 126.16 72.7521 121.051 75.2401C120.038 75.7469 119.072 76.2998 118.105 76.8527C118.197 78.0507 117.783 79.2947 116.862 80.078C116.862 80.723 116.724 81.322 116.448 81.8749C118.335 80.4005 120.361 79.1565 122.478 78.0967C127.173 75.793 132.19 74.595 137.483 74.5029C137.667 74.5029 137.897 74.5029 138.081 74.5029C143.052 74.5029 147.885 75.5165 152.349 77.4978L152.81 77.6821C156.124 79.2025 159.162 81.2298 161.877 83.6718L164.04 81.2759C161.325 78.9261 158.333 76.8988 155.065 75.2862Z" fill="white"/>
<path d="M104.205 61.9707H170.576" stroke="white" stroke-width="4.50235" stroke-miterlimit="10"/>
<path d="M137.392 28.1055V94.5454" stroke="white" stroke-width="4.50235" stroke-miterlimit="10"/>
<path d="M162.523 29.5796C157.091 29.5796 152.673 34.0028 152.673 39.3935C152.673 40.1307 152.765 40.8679 152.903 41.559C153.087 42.2962 153.317 43.0334 153.639 43.6785C153.916 44.2775 154.284 44.8304 154.698 45.3833C154.836 45.6136 155.02 45.7979 155.204 45.9822L162.2 54.3218L169.335 46.443C169.657 46.1205 169.979 45.7979 170.255 45.4293C170.577 45.0147 170.854 44.6 171.084 44.1392C171.452 43.4942 171.774 42.757 171.958 42.0198C172.188 41.1905 172.326 40.315 172.326 39.3935C172.372 34.0028 167.954 29.5796 162.523 29.5796ZM162.523 44.4157C159.761 44.4157 157.506 42.158 157.506 39.4396C157.506 36.6751 159.761 34.4174 162.523 34.4174C165.284 34.4174 167.54 36.6751 167.54 39.4396C167.54 42.158 165.284 44.4157 162.523 44.4157Z" fill="#F15C22"/>
<path d="M111.34 66.6704C105.909 66.6704 101.49 71.0936 101.49 76.4844C101.49 77.2216 101.582 77.9587 101.72 78.6499C101.904 79.3871 102.135 80.1243 102.457 80.7693C102.733 81.3683 103.101 81.9212 103.515 82.4741C103.654 82.7045 103.838 82.8888 104.022 83.0731L111.018 91.4126L118.152 83.5338C118.474 83.2113 118.796 82.8888 119.073 82.5202C119.395 82.1055 119.671 81.6908 119.901 81.2301C120.269 80.585 120.592 79.8478 120.776 79.1106C121.006 78.2813 121.144 77.4059 121.144 76.4844C121.144 71.0936 116.725 66.6704 111.34 66.6704ZM111.34 81.5065C108.578 81.5065 106.323 79.2488 106.323 76.5304C106.323 73.812 108.578 71.5083 111.34 71.5083C114.102 71.5083 116.311 73.7659 116.311 76.5304C116.311 79.2949 114.056 81.5065 111.34 81.5065Z" fill="#F15C22"/>
<path d="M60.3415 154.581H56.7053L56.107 156.332H54.1738L57.4878 147.117H59.6511L62.965 156.332H61.0319L60.3415 154.581ZM59.8352 153.107L58.5004 149.283L57.1656 153.107H59.8352Z" fill="white"/>
<path d="M67.1536 154.858H70.1914V156.332H65.3125V147.163H67.1536V154.858Z" fill="white"/>
<path d="M84.7822 147.117L82.2046 156.286H80.0413L78.3383 149.743L76.5433 156.286H74.38L71.8945 147.071H73.8737L75.4847 154.212L77.3718 147.071H79.443L81.192 154.166L82.803 147.071H84.7822V147.117Z" fill="white"/>
<path d="M92.7907 154.581H89.1545L88.5562 156.332H86.623L89.937 147.117H92.1003L95.4142 156.332H93.4811L92.7907 154.581ZM92.2844 153.107L90.9496 149.283L89.6148 153.107H92.2844Z" fill="white"/>
<path d="M105.08 147.117L101.996 153.107V156.286H100.155V153.107L97.0254 147.117H99.0966L101.076 151.31L103.055 147.117H105.08Z" fill="white"/>
<path d="M108.762 156.102C108.256 155.871 107.842 155.549 107.566 155.134C107.29 154.719 107.105 154.212 107.105 153.66H109.085C109.131 154.028 109.223 154.351 109.499 154.535C109.729 154.765 110.051 154.857 110.511 154.857C110.926 154.857 111.294 154.765 111.524 154.535C111.754 154.351 111.892 154.074 111.892 153.706C111.892 153.429 111.8 153.199 111.662 153.015C111.478 152.83 111.294 152.692 111.018 152.6C110.788 152.508 110.419 152.369 110.005 152.277C109.407 152.093 108.947 151.909 108.532 151.77C108.164 151.586 107.842 151.356 107.566 150.987C107.29 150.619 107.151 150.158 107.151 149.605C107.151 149.052 107.29 148.591 107.566 148.177C107.842 147.762 108.21 147.486 108.716 147.255C109.223 147.025 109.775 146.933 110.419 146.933C111.386 146.933 112.122 147.163 112.721 147.624C113.319 148.084 113.641 148.73 113.687 149.559H111.662C111.662 149.236 111.524 148.96 111.248 148.776C110.972 148.591 110.65 148.453 110.235 148.453C109.867 148.453 109.591 148.545 109.361 148.73C109.131 148.914 109.039 149.19 109.039 149.513C109.039 149.743 109.131 149.974 109.269 150.112C109.407 150.25 109.637 150.388 109.867 150.526C110.097 150.619 110.465 150.757 110.88 150.895C111.478 151.079 111.984 151.264 112.353 151.402C112.721 151.586 113.043 151.863 113.319 152.185C113.595 152.508 113.733 153.014 113.733 153.567C113.733 154.074 113.595 154.535 113.365 154.95C113.089 155.364 112.721 155.687 112.261 155.963C111.8 156.24 111.202 156.332 110.511 156.332C109.821 156.424 109.269 156.286 108.762 156.102Z" fill="white"/>
<path d="M122.709 155.825C121.972 155.41 121.42 154.857 121.006 154.166C120.591 153.429 120.361 152.646 120.361 151.724C120.361 150.849 120.591 150.02 121.006 149.328C121.42 148.591 122.018 148.038 122.709 147.67C123.445 147.255 124.228 147.071 125.056 147.071C125.931 147.071 126.713 147.255 127.45 147.67C128.186 148.084 128.738 148.637 129.153 149.328C129.567 150.02 129.797 150.849 129.797 151.724C129.797 152.646 129.567 153.429 129.153 154.166C128.738 154.904 128.186 155.456 127.45 155.825C126.713 156.194 125.931 156.424 125.102 156.424C124.228 156.424 123.445 156.194 122.709 155.825ZM126.529 154.397C126.943 154.166 127.265 153.798 127.496 153.337C127.726 152.876 127.864 152.323 127.864 151.724C127.864 151.125 127.726 150.572 127.496 150.112C127.265 149.651 126.943 149.282 126.529 149.052C126.115 148.822 125.608 148.683 125.056 148.683C124.504 148.683 123.997 148.822 123.583 149.052C123.169 149.282 122.847 149.651 122.571 150.112C122.294 150.572 122.202 151.125 122.202 151.724C122.202 152.323 122.34 152.876 122.571 153.337C122.801 153.798 123.123 154.166 123.583 154.397C124.044 154.627 124.504 154.765 125.056 154.765C125.608 154.765 126.115 154.627 126.529 154.397Z" fill="white"/>
<path d="M140.153 156.332H138.312L134.123 150.02V156.332H132.282V147.117H134.123L138.312 153.429V147.117H140.153V156.332Z" fill="white"/>
<path d="M153.731 147.117V148.592H151.291V156.286H149.45V148.592H147.011V147.117H153.731Z" fill="white"/>
<path d="M163.857 147.117V156.286H162.016V152.37H158.104V156.286H156.263V147.117H158.104V150.895H162.016V147.117H163.857Z" fill="white"/>
<path d="M168.69 148.637V150.941H171.774V152.416H168.69V154.858H172.188V156.378H166.849V147.163H172.188V148.684H168.69V148.637Z" fill="white"/>
<path d="M189.356 147.117V156.286H187.515V150.296L185.076 156.286H183.695L181.209 150.296V156.286H179.368V147.117H181.439L184.339 153.936L187.239 147.117H189.356Z" fill="white"/>
<path d="M194.281 155.825C193.545 155.41 192.992 154.857 192.578 154.166C192.164 153.429 191.934 152.646 191.934 151.724C191.934 150.849 192.164 150.02 192.578 149.328C192.992 148.591 193.591 148.038 194.281 147.67C195.017 147.255 195.8 147.071 196.628 147.071C197.503 147.071 198.285 147.255 199.022 147.67C199.758 148.084 200.311 148.637 200.725 149.328C201.139 150.066 201.369 150.849 201.369 151.724C201.369 152.646 201.139 153.429 200.725 154.166C200.311 154.904 199.758 155.456 199.022 155.825C198.285 156.24 197.503 156.424 196.674 156.424C195.754 156.424 194.971 156.194 194.281 155.825ZM198.101 154.397C198.515 154.166 198.838 153.798 199.068 153.337C199.298 152.876 199.436 152.323 199.436 151.724C199.436 151.125 199.298 150.572 199.068 150.112C198.838 149.651 198.515 149.282 198.101 149.052C197.687 148.822 197.181 148.683 196.628 148.683C196.076 148.683 195.57 148.822 195.155 149.052C194.741 149.282 194.419 149.651 194.143 150.112C193.867 150.572 193.775 151.125 193.775 151.724C193.775 152.323 193.913 152.876 194.143 153.337C194.373 153.798 194.695 154.166 195.155 154.397C195.616 154.627 196.076 154.765 196.628 154.765C197.181 154.765 197.687 154.627 198.101 154.397Z" fill="white"/>
<path d="M212.139 147.117L208.779 156.286H206.524L203.164 147.117H205.143L207.675 154.443L210.206 147.117H212.139Z" fill="white"/>
<path d="M216.236 148.637V150.941H219.319V152.416H216.236V154.858H219.734V156.378H214.395V147.163H219.734V148.684H216.236V148.637Z" fill="white"/>
</svg>
