<svg width="130" height="36" viewBox="0 0 130 36" fill="none" xmlns="http://www.w3.org/2000/svg">
<g clip-path="url(#clip0_78_2641)">
<g clip-path="url(#clip1_78_2641)">
<g clip-path="url(#clip2_78_2641)">
<g clip-path="url(#clip3_78_2641)">
<g clip-path="url(#clip4_78_2641)">
<g clip-path="url(#clip5_78_2641)">
<path d="M7.57539 27.7078C9.36719 27.7078 11.0654 27.1863 12.67 26.1433C14.2746 25.1003 15.0769 23.8701 15.0769 22.4528C15.0769 21.4365 14.6757 20.5941 13.8734 19.9255C12.4828 18.8023 10.5439 18.2407 8.05677 18.2407C7.44168 18.2407 7.11541 18.2541 7.07797 18.2808C7.03518 18.3076 7.01378 19.5511 7.01378 22.0115C7.01378 24.4719 7.13413 26.3573 7.37482 27.6677C7.4283 27.6944 7.49516 27.7078 7.57539 27.7078ZM10.7044 13.3627C11.3997 13.0846 11.996 12.6567 12.4935 12.0791C12.9855 11.5068 13.2316 10.905 13.2316 10.2739C13.2316 9.6481 13.0444 9.148 12.67 8.77359C12.2956 8.39919 11.8276 8.11839 11.266 7.93118C10.7044 7.74398 10.1641 7.61027 9.64532 7.53004C9.12115 7.44981 8.61838 7.40969 8.137 7.40969C7.65562 7.40969 7.39621 7.42841 7.35877 7.46585C7.31598 7.50864 7.2625 8.60511 7.19831 10.7553C7.12878 12.9108 7.09401 14.0554 7.09401 14.1891C7.12076 14.2158 7.2625 14.2292 7.51923 14.2292C7.77062 14.2292 8.19049 14.1543 8.77884 14.0046C9.36719 13.8602 10.009 13.6462 10.7044 13.3627ZM1.99943 24.8195L2.2 9.49566C2.2 8.42593 2.17326 7.86432 2.11977 7.81084C1.8256 7.51666 1.43782 6.8668 0.956442 5.86126C0.475064 4.86106 0.234375 4.21387 0.234375 3.9197L0.27449 3.79935C0.434949 3.66564 1.28538 3.54529 2.82579 3.43832C4.36086 3.33135 5.88522 3.27786 7.39889 3.27786C8.90721 3.27786 10.2898 3.37146 11.5468 3.55867C12.8037 3.74587 14.0285 4.04004 15.2213 4.44119C16.4087 4.84234 17.3634 5.43604 18.0855 6.22229C18.8075 7.01389 19.1686 7.89642 19.1686 8.86987C19.1686 9.84867 18.9627 10.7312 18.5508 11.5175C18.1336 12.309 17.6175 12.9723 17.0024 13.5071C16.0664 14.3094 15.1571 14.9245 14.2746 15.3524C14.2211 15.4059 14.1943 15.446 14.1943 15.4728C14.2211 15.4995 14.4163 15.5664 14.78 15.6733C15.1384 15.7803 15.486 15.906 15.823 16.0504C16.1546 16.2002 16.5611 16.3954 17.0425 16.6361C17.5239 16.8768 17.9651 17.1629 18.3663 17.4946C18.7674 17.8315 19.1418 18.214 19.4895 18.6418C20.2651 19.5511 20.6528 20.7867 20.6528 22.3485C20.6528 23.9156 20.1715 25.3811 19.2087 26.745C18.2459 28.1089 16.9623 29.1787 15.3577 29.9542C12.1485 31.5053 8.49803 32.2809 4.40632 32.2809L2.36046 32.1605C2.28023 32.0536 2.2 31.0828 2.11977 29.2482C2.03954 27.419 1.99943 25.9427 1.99943 24.8195ZM37.7016 19.4441V21.49C37.7016 24.8329 37.7418 26.7852 37.822 27.3468C38.0359 28.8176 38.4906 29.874 39.1859 30.5158C39.1859 30.81 38.6564 31.2513 37.5973 31.8396C36.5437 32.428 35.5889 32.7222 34.7331 32.7222C34.4925 32.7222 34.2384 32.3691 33.971 31.6631C33.7035 30.9518 33.5484 30.4222 33.5056 30.0746C33.4682 29.7269 33.4361 29.5531 33.4094 29.5531L33.289 29.6333C31.8716 30.7565 30.2135 31.3181 28.3148 31.3181C26.416 31.3181 24.9505 30.8555 23.9182 29.9302C22.8912 29.0102 22.3778 27.8014 22.3778 26.3038C22.3778 24.8062 22.704 23.5412 23.3566 22.5089C24.0145 21.482 24.7847 20.7011 25.6672 20.1662C26.5497 19.6313 27.5258 19.2035 28.5956 18.8825C30.2269 18.3477 31.5106 18.0802 32.4466 18.0802L32.5268 18.0401C32.5268 16.7297 30.8687 16.0745 27.5526 16.0745C26.2422 16.0745 25.266 16.128 24.6242 16.235H24.5841C24.5841 15.7001 24.7499 15.0315 25.0815 14.2292C25.4185 13.4269 25.6993 12.9054 25.9239 12.6647C26.1539 12.424 27.1113 12.3037 28.7961 12.3037C31.8449 12.3037 34.0913 12.884 35.5354 14.0447C36.9796 15.2107 37.7016 17.0105 37.7016 19.4441ZM33.2489 24.0574V22.533C33.2489 21.9446 33.2355 21.6505 33.2088 21.6505C31.417 21.6505 29.8659 22.1185 28.5555 23.0545C27.7264 23.6428 27.3119 24.3783 27.3119 25.2608C27.3119 25.8224 27.5125 26.2904 27.9136 26.6648C28.3148 27.0392 28.9218 27.2264 29.7348 27.2264C30.5532 27.2264 31.3421 26.9857 32.1016 26.5044C32.8665 26.023 33.2489 25.2073 33.2489 24.0574ZM41.8736 25.0201L41.7934 15.914C41.7934 14.3362 41.8468 13.4938 41.9538 13.3868C42.248 13.0926 42.7561 12.8305 43.4782 12.6006C44.2002 12.3759 44.8742 12.2636 45.5 12.2636C46.1258 12.2636 46.4387 12.3304 46.4387 12.4642C46.3638 13.1862 46.3263 14.0072 46.3263 14.9272C46.3263 15.8525 46.3531 16.3152 46.4066 16.3152C46.46 16.3152 46.5135 16.2804 46.567 16.2109C46.6152 16.1467 46.7007 16.0397 46.8238 15.89C46.9468 15.7456 47.2008 15.4861 47.5859 15.1117C47.9764 14.7373 48.3963 14.4164 48.8455 14.149C50.0009 13.4002 51.2337 13.0258 52.5441 13.0258C52.7527 13.3734 52.857 13.9083 52.857 14.6304C52.857 16.1547 52.6725 17.2378 52.3034 17.8797L52.143 18.2006L51.6215 18.1204C49.696 18.1204 48.185 18.9093 47.0885 20.4871C46.6553 21.129 46.4387 21.6103 46.4387 21.9313V25.4614C46.4387 28.6706 46.4012 30.3153 46.3263 30.3955C45.5775 31.1176 44.1066 31.4786 41.9137 31.4786C41.6998 31.4786 41.5928 31.4385 41.5928 31.3583C41.78 30.3153 41.8736 28.2026 41.8736 25.0201ZM59.7167 20.8482V21.4098L59.7568 22.894V25.9427C59.7568 28.8043 59.7033 30.2885 59.5963 30.3955C59.2487 30.7432 58.6469 31.0106 57.7912 31.1978C56.9354 31.385 56.2347 31.4786 55.6891 31.4786C55.1382 31.4786 54.8628 31.4385 54.8628 31.3583C55.05 30.1548 55.1436 28.1758 55.1436 25.4213L55.0232 16.3954C55.0232 14.7373 55.0901 13.8414 55.2238 13.7077C55.518 13.4135 56.0261 13.1515 56.7482 12.9215C57.4702 12.6968 58.1468 12.5845 58.778 12.5845C59.4038 12.5845 59.7167 12.6514 59.7167 12.7851C59.6364 13.4269 59.5963 14.0688 59.5963 14.7106C59.5963 15.3524 59.6364 15.6733 59.7167 15.6733L59.837 15.5931C59.9707 15.4059 60.1713 15.1706 60.4387 14.8871C60.7062 14.609 61.2758 14.2346 62.1476 13.7639C63.0141 13.2985 63.8431 13.0659 64.6348 13.0659C65.421 13.0659 66.0896 13.2049 66.6405 13.4831C67.1861 13.7666 67.6327 14.1089 67.9803 14.51C68.328 14.9112 68.6302 15.4861 68.8869 16.235C69.1383 16.9838 69.3309 17.6791 69.4646 18.3209C69.5983 18.9628 69.7053 19.8185 69.7855 20.8883C69.8657 22.3592 69.9058 24.2312 69.9058 26.5044L69.7855 31.1978C69.7855 31.385 69.3442 31.5669 68.4617 31.7434C67.5792 31.9145 66.8705 32.0001 66.3356 32.0001L65.0118 31.7995C65.2793 29.3926 65.413 27.0579 65.413 24.7955C65.413 22.5383 65.2659 20.8401 64.9717 19.7009C64.6775 18.567 64.0892 18 63.2067 18C62.3241 18 61.6101 18.2407 61.0645 18.7221C60.5136 19.2035 60.1579 19.6848 59.9975 20.1662L59.7167 20.8482ZM82.7827 17.6791C82.7827 16.9035 82.3682 16.5158 81.5391 16.5158C80.4427 16.5158 79.4799 17.0774 78.6509 18.2006C77.8218 19.3238 77.4073 20.6743 77.4073 22.2522C77.4073 22.6266 77.4608 22.8138 77.5678 22.8138C78.5305 22.787 79.6404 22.2308 80.8973 21.145C82.1542 20.0646 82.7827 18.9093 82.7827 17.6791ZM86.2727 30.4356C85.3634 31.0507 83.585 31.3583 80.9374 31.3583C78.2898 31.3583 76.2574 30.5693 74.84 28.9915C73.4226 27.4136 72.7139 25.3063 72.7139 22.6694C72.7139 20.0378 73.5643 17.7513 75.2652 15.8097C76.9607 13.8735 79.3462 12.9054 82.4217 12.9054C83.6786 12.9054 84.8366 13.2397 85.8956 13.9083C86.9493 14.5769 87.4761 15.7456 87.4761 17.4143C87.4761 19.0885 86.7487 20.7412 85.2939 22.3725C83.8337 24.0039 81.8467 25.2474 79.3328 26.1032C79.3328 26.4241 79.6591 26.6862 80.3116 26.8895C80.9695 27.0874 81.6194 27.1863 82.2612 27.1863C84.2937 27.1863 85.8983 26.8253 87.075 26.1032C87.1017 26.0765 87.1419 26.0631 87.1953 26.0631C87.2488 26.0631 87.2756 26.3172 87.2756 26.8253C87.2756 28.3764 86.9413 29.5798 86.2727 30.4356ZM90.565 25.0201L90.4848 15.914C90.4848 14.3362 90.5382 13.4938 90.6452 13.3868C90.9394 13.0926 91.4475 12.8305 92.1696 12.6006C92.8916 12.3759 93.5656 12.2636 94.1914 12.2636C94.8225 12.2636 95.1381 12.3304 95.1381 12.4642C95.0579 13.1862 95.0177 14.0072 95.0177 14.9272C95.0177 15.8525 95.0445 16.3152 95.098 16.3152C95.1515 16.3152 95.2049 16.2804 95.2584 16.2109C95.3119 16.1467 95.3975 16.0397 95.5152 15.89C95.6382 15.7456 95.8922 15.4861 96.2773 15.1117C96.6678 14.7373 97.0903 14.4164 97.545 14.149C98.6949 13.4002 99.9251 13.0258 101.236 13.0258C101.449 13.3734 101.556 13.9083 101.556 14.6304C101.556 16.1547 101.369 17.2378 100.995 17.8797L100.834 18.2006L100.313 18.1204C98.3874 18.1204 96.8764 18.9093 95.7799 20.4871C95.352 21.129 95.1381 21.6103 95.1381 21.9313V25.4614C95.1381 28.6706 95.098 30.3153 95.0177 30.3955C94.2689 31.1176 92.798 31.4786 90.6051 31.4786C90.3912 31.4786 90.2842 31.4385 90.2842 31.3583C90.4714 30.3153 90.565 28.2026 90.565 25.0201Z" fill="#111111"/>
</g>
</g>
</g>
</g>
<g clip-path="url(#clip6_78_2641)">
<g clip-path="url(#clip7_78_2641)">
<path d="M119.137 1.11282C113.269 1.11282 108.512 5.87013 108.512 11.7386C108.509 13.3661 108.882 14.9723 109.602 16.4321L109.706 16.6509L119.136 34.8872L128.485 16.8052L128.537 16.6978C129.345 15.1696 129.766 13.4668 129.763 11.7382C129.763 5.87013 125.006 1.11282 119.137 1.11282ZM121.796 14.8808V16.1086H116.474V14.8808H118.561V12.8063L114.409 7.74836H123.866L119.709 12.8119V14.8804L121.796 14.8808Z" fill="#1C4DFF"/>
</g>
</g>
</g>
</g>
<defs>
<clipPath id="clip0_78_2641">
<rect width="129.533" height="33.7744" fill="white" transform="translate(0.230347 1.11282)"/>
</clipPath>
<clipPath id="clip1_78_2641">
<rect width="129.533" height="33.7744" fill="white" transform="translate(0.230347 1.11282)"/>
</clipPath>
<clipPath id="clip2_78_2641">
<rect width="101.33" height="29.4443" fill="white" transform="translate(0.230347 3.27786)"/>
</clipPath>
<clipPath id="clip3_78_2641">
<rect width="101.33" height="29.4443" fill="white" transform="translate(0.230347 3.27786)"/>
</clipPath>
<clipPath id="clip4_78_2641">
<rect width="101.33" height="29.4443" fill="white" transform="translate(0.230347 3.27786)"/>
</clipPath>
<clipPath id="clip5_78_2641">
<rect width="101.33" height="29.4443" fill="white" transform="translate(0.230347 3.27786)"/>
</clipPath>
<clipPath id="clip6_78_2641">
<rect width="21.2516" height="33.7744" fill="white" transform="translate(108.512 1.11282)"/>
</clipPath>
<clipPath id="clip7_78_2641">
<rect width="21.2516" height="33.7744" fill="white" transform="translate(108.512 1.11282)"/>
</clipPath>
</defs>
</svg>
