<svg width="201" height="54" viewBox="0 0 201 54" fill="none" xmlns="http://www.w3.org/2000/svg">
<g clip-path="url(#clip0_128_2651)">
<g clip-path="url(#clip1_128_2651)">
<g clip-path="url(#clip2_128_2651)">
<g clip-path="url(#clip3_128_2651)">
<g clip-path="url(#clip4_128_2651)">
<g clip-path="url(#clip5_128_2651)">
<g clip-path="url(#clip6_128_2651)">
<path d="M12.1545 42.1264C14.9111 42.1264 17.5237 41.3228 19.9923 39.7155C22.4609 38.1082 23.6952 36.2125 23.6952 34.0282C23.6952 32.4622 23.078 31.164 21.8437 30.1337C19.7043 28.4028 16.7214 27.5374 12.8951 27.5374C11.9488 27.5374 11.4468 27.558 11.3892 27.5992C11.3234 27.6404 11.2905 29.5567 11.2905 33.3482C11.2905 37.1397 11.4756 40.0452 11.8459 42.0646C11.9282 42.1058 12.031 42.1264 12.1545 42.1264ZM16.9683 20.0203C18.038 19.5917 18.9555 18.9323 19.7207 18.0421C20.4778 17.1602 20.8563 16.2329 20.8563 15.2603C20.8563 14.296 20.5683 13.5253 19.9923 12.9483C19.4163 12.3714 18.6963 11.9386 17.8323 11.6502C16.9683 11.3617 16.1372 11.1556 15.339 11.032C14.5326 10.9083 13.7591 10.8465 13.0185 10.8465C12.2779 10.8465 11.8788 10.8754 11.8212 10.9331C11.7554 10.999 11.6731 12.6887 11.5743 16.0021C11.4674 19.3238 11.4139 21.0877 11.4139 21.2937C11.455 21.335 11.6731 21.3556 12.0681 21.3556C12.4548 21.3556 13.1008 21.2402 14.0059 21.0094C14.9111 20.7868 15.8985 20.4571 16.9683 20.0203ZM3.57606 37.6755L3.88464 14.0611C3.88464 12.4126 3.84349 11.5471 3.76121 11.4647C3.30863 11.0114 2.71205 10.0099 1.97147 8.46035C1.23089 6.91902 0.860596 5.9217 0.860596 5.46836L0.922311 5.28291C1.16917 5.07685 2.47753 4.89139 4.84739 4.72655C7.20903 4.5617 9.5542 4.47928 11.8829 4.47928C14.2034 4.47928 16.3305 4.62352 18.2643 4.912C20.198 5.20049 22.0824 5.65382 23.9174 6.27199C25.7441 6.89017 27.213 7.80508 28.3238 9.01671C29.4347 10.2366 29.9901 11.5966 29.9901 13.0967C29.9901 14.6051 29.6733 15.965 29.0397 17.1767C28.3979 18.3966 27.6038 19.4186 26.6575 20.2428C25.2175 21.4792 23.8186 22.4271 22.4609 23.0865C22.3786 23.1689 22.3375 23.2307 22.3375 23.2719C22.3786 23.3131 22.679 23.4162 23.2385 23.581C23.7898 23.7459 24.3247 23.9396 24.8431 24.1621C25.3533 24.3929 25.9787 24.6937 26.7192 25.0646C27.4598 25.4355 28.1387 25.8765 28.7558 26.3875C29.373 26.9068 29.949 27.4961 30.4839 28.1555C31.677 29.5567 32.2736 31.4607 32.2736 33.8675C32.2736 36.2825 31.533 38.5409 30.0519 40.6428C28.5707 42.7446 26.5958 44.393 24.1272 45.5882C19.19 47.9785 13.5739 49.1736 7.27897 49.1736L4.1315 48.9882C4.00807 48.8233 3.88464 47.3273 3.76121 44.5002C3.63778 41.6813 3.57606 39.4064 3.57606 37.6755ZM58.5025 29.3919V32.5446C58.5025 37.6961 58.5643 40.7046 58.6877 41.57C59.0168 43.8367 59.7163 45.4646 60.786 46.4536C60.786 46.907 59.9714 47.587 58.3421 48.4936C56.721 49.4003 55.2522 49.8536 53.9356 49.8536C53.5653 49.8536 53.1745 49.3096 52.763 48.2216C52.3516 47.1254 52.113 46.3094 52.0471 45.7736C51.9895 45.2379 51.9402 44.97 51.899 44.97L51.7139 45.0936C49.5333 46.8245 46.9824 47.69 44.0612 47.69C41.14 47.69 38.8854 46.977 37.2972 45.5511C35.7173 44.1334 34.9274 42.2706 34.9274 39.9628C34.9274 37.6549 35.4293 35.7056 36.4332 34.1148C37.4453 32.5322 38.6303 31.3289 39.988 30.5046C41.3457 29.6804 42.8475 29.021 44.4932 28.5264C47.003 27.7022 48.9778 27.2901 50.4179 27.2901L50.5413 27.2283C50.5413 25.2089 47.9904 24.1992 42.8886 24.1992C40.8726 24.1992 39.3708 24.2816 38.3834 24.4465H38.3217C38.3217 23.6222 38.5768 22.5919 39.087 21.3556C39.6054 20.1192 40.0374 19.3156 40.383 18.9447C40.7368 18.5738 42.2097 18.3883 44.8018 18.3883C49.4921 18.3883 52.9482 19.2826 55.1699 21.0712C57.3917 22.868 58.5025 25.6416 58.5025 29.3919ZM51.6522 36.501V34.1519C51.6522 33.2452 51.6316 32.7919 51.5904 32.7919C48.8338 32.7919 46.4475 33.5131 44.4315 34.9555C43.156 35.8622 42.5183 36.9955 42.5183 38.3555C42.5183 39.2209 42.8269 39.9422 43.444 40.5191C44.0612 41.0961 44.9952 41.3846 46.2459 41.3846C47.5049 41.3846 48.7186 41.0137 49.8871 40.2719C51.0638 39.53 51.6522 38.2731 51.6522 36.501ZM64.9209 37.9846L64.7975 23.9519C64.7975 21.5204 64.8798 20.2222 65.0443 20.0574C65.4969 19.6041 66.2787 19.2002 67.3895 18.8458C68.5004 18.4996 69.5372 18.3265 70.5 18.3265C71.4627 18.3265 71.9441 18.4295 71.9441 18.6356C71.8289 19.7483 71.7713 21.0135 71.7713 22.4312C71.7713 23.8571 71.8124 24.5701 71.8947 24.5701C71.977 24.5701 72.0593 24.5165 72.1416 24.4094C72.2157 24.3105 72.3473 24.1456 72.5366 23.9148C72.7258 23.6923 73.1167 23.2925 73.7092 22.7156C74.3099 22.1386 74.9558 21.6441 75.647 21.2319C77.4244 20.078 79.3211 19.501 81.3372 19.501C81.6581 20.0368 81.8185 20.861 81.8185 21.9737C81.8185 24.3228 81.5346 25.9919 80.9669 26.981L80.72 27.4755L79.9177 27.3519C76.9554 27.3519 74.6308 28.5677 72.9439 30.9992C72.2774 31.9882 71.9441 32.7301 71.9441 33.2246V38.6646C71.9441 43.61 71.8865 46.1446 71.7713 46.2682C70.6193 47.3809 68.3564 47.9373 64.9826 47.9373C64.6535 47.9373 64.4889 47.8755 64.4889 47.7518C64.7769 46.1446 64.9209 42.8888 64.9209 37.9846ZM92.3718 31.5555V32.421L92.4335 34.7082V39.4064C92.4335 43.8161 92.3512 46.1033 92.1867 46.2682C91.6518 46.8039 90.7261 47.2161 89.4095 47.5045C88.0929 47.793 87.0149 47.9373 86.1756 47.9373C85.3281 47.9373 84.9043 47.8755 84.9043 47.7518C85.1923 45.8973 85.3363 42.8476 85.3363 38.6028L85.1511 24.6937C85.1511 22.1386 85.254 20.758 85.4597 20.5519C85.9123 20.0986 86.694 19.6947 87.8049 19.3403C88.9158 18.9941 89.9567 18.821 90.9277 18.821C91.8904 18.821 92.3718 18.9241 92.3718 19.1301C92.2484 20.1192 92.1867 21.1083 92.1867 22.0974C92.1867 23.0865 92.2484 23.581 92.3718 23.581L92.557 23.4574C92.7627 23.1689 93.0713 22.8062 93.4827 22.3694C93.8941 21.9408 94.7705 21.3638 96.1118 20.6385C97.4448 19.9214 98.7202 19.5628 99.9381 19.5628C101.148 19.5628 102.176 19.7772 103.024 20.2058C103.863 20.6426 104.55 21.1701 105.085 21.7883C105.62 22.4065 106.085 23.2925 106.48 24.4465C106.867 25.6004 107.163 26.6719 107.369 27.661C107.574 28.6501 107.739 29.9689 107.862 31.6173C107.986 33.884 108.047 36.7688 108.047 40.2719L107.862 47.5045C107.862 47.793 107.183 48.0733 105.826 48.3453C104.468 48.609 103.378 48.7409 102.555 48.7409L100.518 48.4318C100.93 44.7227 101.135 41.1249 101.135 37.6384C101.135 34.1601 100.909 31.5432 100.457 29.7875C100.004 28.0401 99.0988 27.1665 97.741 27.1665C96.3833 27.1665 95.2848 27.5374 94.4454 28.2792C93.5979 29.021 93.0507 29.7628 92.8038 30.5046L92.3718 31.5555ZM127.858 26.6719C127.858 25.4768 127.22 24.8792 125.945 24.8792C124.258 24.8792 122.777 25.7446 121.501 27.4755C120.226 29.2064 119.588 31.2876 119.588 33.7191C119.588 34.2961 119.67 34.5846 119.835 34.5846C121.316 34.5434 123.024 33.6862 124.957 32.013C126.891 30.348 127.858 28.5677 127.858 26.6719ZM133.227 46.33C131.828 47.2779 129.092 47.7518 125.019 47.7518C120.946 47.7518 117.819 46.5361 115.638 44.1046C113.458 41.6731 112.368 38.4256 112.368 34.3621C112.368 30.3068 113.676 26.7832 116.293 23.7912C118.901 20.8074 122.571 19.3156 127.303 19.3156C129.236 19.3156 131.018 19.8307 132.647 20.861C134.268 21.8913 135.079 23.6923 135.079 26.2639C135.079 28.8438 133.96 31.3907 131.721 33.9046C129.475 36.4185 126.418 38.3349 122.551 39.6537C122.551 40.1482 123.052 40.5521 124.056 40.8653C125.069 41.1703 126.068 41.3228 127.056 41.3228C130.183 41.3228 132.651 40.7664 134.462 39.6537C134.503 39.6125 134.564 39.5919 134.647 39.5919C134.729 39.5919 134.77 39.9834 134.77 40.7664C134.77 43.1567 134.256 45.0112 133.227 46.33ZM139.831 37.9846L139.707 23.9519C139.707 21.5204 139.79 20.2222 139.954 20.0574C140.407 19.6041 141.188 19.2002 142.299 18.8458C143.41 18.4996 144.447 18.3265 145.41 18.3265C146.381 18.3265 146.866 18.4295 146.866 18.6356C146.743 19.7483 146.681 21.0135 146.681 22.4312C146.681 23.8571 146.722 24.5701 146.805 24.5701C146.887 24.5701 146.969 24.5165 147.051 24.4094C147.134 24.3105 147.265 24.1456 147.446 23.9148C147.636 23.6923 148.027 23.2925 148.619 22.7156C149.22 22.1386 149.87 21.6441 150.569 21.2319C152.338 20.078 154.231 19.501 156.247 19.501C156.576 20.0368 156.741 20.861 156.741 21.9737C156.741 24.3228 156.453 25.9919 155.877 26.981L155.63 27.4755L154.828 27.3519C151.865 27.3519 149.541 28.5677 147.854 30.9992C147.195 31.9882 146.866 32.7301 146.866 33.2246V38.6646C146.866 43.61 146.805 46.1446 146.681 46.2682C145.529 47.3809 143.266 47.9373 139.892 47.9373C139.563 47.9373 139.399 47.8755 139.399 47.7518C139.687 46.1446 139.831 42.8888 139.831 37.9846Z" fill="white"/>
</g>
</g>
</g>
</g>
<g clip-path="url(#clip7_128_2651)">
<g clip-path="url(#clip8_128_2651)">
<path d="M183.788 1.14291C174.76 1.14291 167.441 8.47404 167.441 17.5175C167.437 20.0256 168.011 22.5006 169.118 24.7503L169.279 25.0875L183.785 53.19L198.168 25.3252L198.249 25.1598C199.492 22.8047 200.139 20.1806 200.135 17.5169C200.135 8.47404 192.817 1.14291 183.788 1.14291ZM187.879 22.3596V24.2518H179.691V22.3596H182.902V19.1628L176.514 11.3684H191.063L184.667 19.1715V22.359L187.879 22.3596Z" fill="white"/>
</g>
</g>
</g>
</g>
</g>
<defs>
<clipPath id="clip0_128_2651">
<rect width="200" height="52.4873" fill="white" transform="translate(0.5 0.922852)"/>
</clipPath>
<clipPath id="clip1_128_2651">
<rect width="199.281" height="52.0471" fill="white" transform="translate(0.854248 1.14291)"/>
</clipPath>
<clipPath id="clip2_128_2651">
<rect width="199.281" height="52.0471" fill="white" transform="translate(0.854248 1.14291)"/>
</clipPath>
<clipPath id="clip3_128_2651">
<rect width="155.892" height="45.3743" fill="white" transform="translate(0.854248 4.47928)"/>
</clipPath>
<clipPath id="clip4_128_2651">
<rect width="155.892" height="45.3743" fill="white" transform="translate(0.854248 4.47928)"/>
</clipPath>
<clipPath id="clip5_128_2651">
<rect width="155.892" height="45.3743" fill="white" transform="translate(0.854248 4.47928)"/>
</clipPath>
<clipPath id="clip6_128_2651">
<rect width="155.892" height="45.3743" fill="white" transform="translate(0.854248 4.47928)"/>
</clipPath>
<clipPath id="clip7_128_2651">
<rect width="32.6948" height="52.0471" fill="white" transform="translate(167.441 1.14291)"/>
</clipPath>
<clipPath id="clip8_128_2651">
<rect width="32.6948" height="52.0471" fill="white" transform="translate(167.441 1.14291)"/>
</clipPath>
</defs>
</svg>
